<svg width="595" height="357" viewBox="0 0 595 357" fill="none" xmlns="http://www.w3.org/2000/svg">
<rect x="404" y="170" width="82" height="192" fill="#555555" fill-opacity="0.3"/>
<path d="M372 86H454V375H372V86Z" fill="#555555"/>
<rect x="402" y="148" width="3" height="6" fill="#5AA8E5" fill-opacity="0.6"/>
<rect x="402" y="163" width="3" height="6" fill="#5AA8E5" fill-opacity="0.6"/>
<rect x="402" y="179" width="3" height="6" fill="#5AA8E5" fill-opacity="0.6"/>
<rect x="421" y="199" width="3" height="6" fill="#5AA8E5" fill-opacity="0.6"/>
<rect x="421" y="214" width="3" height="6" fill="#5AA8E5" fill-opacity="0.6"/>
<rect x="421" y="230" width="3" height="6" fill="#5AA8E5" fill-opacity="0.6"/>
<rect x="421" y="199" width="3" height="6" fill="#5AA8E5" fill-opacity="0.6"/>
<rect x="421" y="214" width="3" height="6" fill="#5AA8E5" fill-opacity="0.6"/>
<rect x="421" y="230" width="3" height="6" fill="#5AA8E5" fill-opacity="0.6"/>
<rect x="6" y="64" width="73" height="293" fill="#555555" fill-opacity="0.3"/>
<rect x="274" y="56" width="10" height="45" fill="#555555" fill-opacity="0.3"/>
<rect x="253" y="80" width="10" height="21" fill="#555555" fill-opacity="0.3"/>
<rect x="79" y="101" width="108" height="13" fill="#555555" fill-opacity="0.3"/>
<rect x="20" y="56" width="59" height="8" fill="#555555" fill-opacity="0.3"/>
<rect x="29" y="48" width="50" height="8" fill="#555555" fill-opacity="0.3"/>
<rect x="20" y="40" width="59" height="8" fill="#555555" fill-opacity="0.3"/>
<rect x="29" y="32" width="50" height="8" fill="#555555" fill-opacity="0.3"/>
<rect x="20" y="24" width="59" height="8" fill="#555555" fill-opacity="0.3"/>
<rect x="29" y="16" width="50" height="8" fill="#555555" fill-opacity="0.3"/>
<rect x="20" y="8" width="59" height="8" fill="#555555" fill-opacity="0.3"/>
<rect x="29" width="50" height="8" fill="#555555" fill-opacity="0.3"/>
<rect x="286" y="197" width="37" height="160" fill="#555555" fill-opacity="0.3"/>
<rect x="79" y="152" width="43" height="205" fill="#555555" fill-opacity="0.3"/>
<rect x="486" y="101" width="99" height="256" fill="#555555" fill-opacity="0.3"/>
<rect x="323" y="42" width="81" height="320" fill="#555555" fill-opacity="0.3"/>
<rect x="187" y="101" width="99" height="256" fill="#555555" fill-opacity="0.3"/>
<rect x="243" y="220" width="82" height="192" fill="#555555"/>
<rect x="513" y="170" width="82" height="218" fill="#555555"/>
<rect x="442" y="202" width="98" height="192" fill="#555555"/>
<rect x="379" y="92" width="2" height="56" fill="#FF1515" fill-opacity="0.6"/>
<rect x="379" y="92" width="2" height="56" fill="#FF1515" fill-opacity="0.6"/>
<rect x="379" y="155" width="2" height="25" fill="#FF1515" fill-opacity="0.6"/>
<rect x="379" y="224" width="2" height="10" fill="#FF1515" fill-opacity="0.6"/>
<rect x="379" y="214" width="2" height="10" fill="#FF1515" fill-opacity="0.6"/>
<rect x="379" y="189" width="2" height="20" fill="#FF1515" fill-opacity="0.6"/>
<rect x="325" y="220" width="82" height="192" fill="#555555"/>
<rect x="222" y="151" width="82" height="192" fill="#555555"/>
<rect x="161" y="272" width="82" height="192" fill="#555555"/>
<rect x="-12" y="247" width="82" height="192" fill="#555555"/>
<rect x="57" y="177" width="104" height="230" fill="#555555"/>
<rect x="122" y="197" width="65" height="256" fill="#555555" fill-opacity="0.3"/>
<path d="M602.5 113L692.134 170.75H512.866L602.5 113Z" fill="#555555"/>
<rect x="67" y="8" width="2" height="56" fill="#FF1515" fill-opacity="0.6"/>
<rect x="67" y="80" width="2" height="75" fill="#5AA8E5" fill-opacity="0.6"/>
<rect x="200" y="164" width="2" height="75" fill="#5AA8E5" fill-opacity="0.6"/>
<rect x="200" y="108" width="2" height="46" fill="#5AA8E5" fill-opacity="0.6"/>
<rect x="337" y="77" width="2" height="46" fill="#5AA8E5" fill-opacity="0.6"/>
<rect x="29" y="120" width="3" height="6" fill="#FF1515" fill-opacity="0.6"/>
<rect x="29" y="135" width="3" height="6" fill="#FF1515" fill-opacity="0.6"/>
<rect x="29" y="151" width="3" height="6" fill="#FF1515" fill-opacity="0.6"/>
<rect x="165" y="280" width="3" height="6" fill="#4BFFA9" fill-opacity="0.6"/>
<rect x="16" y="180" width="3" height="6" fill="#5AA8E5" fill-opacity="0.6"/>
<rect x="16" y="196" width="3" height="6" fill="#5AA8E5" fill-opacity="0.6"/>
<rect x="29" y="196" width="3" height="6" fill="#4BFFA9" fill-opacity="0.6"/>
<rect x="29" y="211" width="3" height="6" fill="#4BFFA9" fill-opacity="0.6"/>
<rect x="29" y="227" width="3" height="6" fill="#4BFFA9" fill-opacity="0.6"/>
<rect x="15" y="284" width="3" height="6" fill="#FF1515" fill-opacity="0.6"/>
<rect x="15" y="299" width="3" height="6" fill="#FF1515" fill-opacity="0.6"/>
<rect x="15" y="315" width="3" height="6" fill="#FF1515" fill-opacity="0.6"/>
<rect x="109" y="277" width="3" height="6" fill="#FF1515" fill-opacity="0.6"/>
<rect x="109" y="292" width="3" height="6" fill="#FF1515" fill-opacity="0.6"/>
<rect x="82" y="197" width="3" height="6" fill="#FF1515" fill-opacity="0.6"/>
<rect x="250" y="208" width="3" height="6" fill="#FF1515" fill-opacity="0.6"/>
<rect x="250" y="223" width="3" height="6" fill="#FF1515" fill-opacity="0.6"/>
<rect x="250" y="239" width="3" height="6" fill="#FF1515" fill-opacity="0.6"/>
<rect x="46" y="76" width="3" height="6" fill="#5AA8E5" fill-opacity="0.6"/>
<rect x="46" y="91" width="3" height="6" fill="#5AA8E5" fill-opacity="0.6"/>
<rect x="46" y="107" width="3" height="6" fill="#5AA8E5" fill-opacity="0.6"/>
<rect x="496" y="108" width="3" height="6" fill="#5AA8E5" fill-opacity="0.6"/>
<rect x="496" y="137" width="3" height="6" fill="#5AA8E5" fill-opacity="0.6"/>
<rect x="336" y="56" width="3" height="6" fill="#5AA8E5" fill-opacity="0.6"/>
<rect x="43" y="263" width="3" height="6" fill="#5AA8E5" fill-opacity="0.6"/>
<rect x="43" y="278" width="3" height="6" fill="#5AA8E5" fill-opacity="0.6"/>
<rect x="540" y="197" width="3" height="6" fill="#5AA8E5" fill-opacity="0.6"/>
<rect x="336" y="297" width="3" height="6" fill="#5AA8E5" fill-opacity="0.6"/>
<rect x="421" y="281" width="3" height="6" fill="#5AA8E5" fill-opacity="0.6"/>
<path d="M253 296.5H256V302.5H253V296.5Z" fill="#5AA8E5" fill-opacity="0.6"/>
<path d="M542 239.5H545V245.5H542V239.5Z" fill="#5AA8E5" fill-opacity="0.6"/>
<rect x="336" y="237" width="3" height="6" fill="#5AA8E5" fill-opacity="0.6"/>
<rect x="336" y="252" width="3" height="6" fill="#5AA8E5" fill-opacity="0.6"/>
<rect x="336" y="268" width="3" height="6" fill="#5AA8E5" fill-opacity="0.6"/>
<rect x="335" y="153" width="3" height="6" fill="#4BFFA9" fill-opacity="0.6"/>
<rect x="335" y="168" width="3" height="6" fill="#4BFFA9" fill-opacity="0.6"/>
<rect x="335" y="184" width="3" height="6" fill="#4BFFA9" fill-opacity="0.6"/>
<rect x="227" y="108" width="3" height="6" fill="#4BFFA9" fill-opacity="0.6"/>
<rect x="227" y="123" width="3" height="6" fill="#4BFFA9" fill-opacity="0.6"/>
<rect x="461" y="219" width="3" height="6" fill="#4BFFA9" fill-opacity="0.6"/>
<rect x="477" y="240" width="3" height="6" fill="#4BFFA9" fill-opacity="0.6"/>
<rect x="477" y="260" width="3" height="6" fill="#4BFFA9" fill-opacity="0.6"/>
<rect x="379" y="223" width="2" height="10" fill="#FF1515" fill-opacity="0.6"/>
<rect x="152" y="185" width="2" height="56" fill="#FF1515" fill-opacity="0.6"/>
</svg>
