<svg width="78" height="14" viewBox="0 0 78 14" fill="none" xmlns="http://www.w3.org/2000/svg">
<path d="M0.816 10.584H10.512V8.312H0.816V10.584ZM31.3629 13.816H44.9309V0.263999H31.3629V13.816ZM33.3149 11.88V4.168H42.9789V11.88H33.3149ZM77.6919 10.76C77.7665 11.0587 77.8039 11.432 77.8039 11.88C77.8039 12.3093 77.7665 12.6827 77.6919 13H75.4519C75.3772 12.6827 75.3399 12.3093 75.3399 11.88C75.3399 11.432 75.3772 11.0587 75.4519 10.76H74.6119C74.5372 10.4427 74.4999 10.0693 74.4999 9.64C74.4999 9.192 74.5372 8.81867 74.6119 8.52H73.2119C73.2865 8.81867 73.3239 9.192 73.3239 9.64C73.3239 10.0693 73.2865 10.4427 73.2119 10.76H72.0919C72.1665 11.0587 72.2039 11.432 72.2039 11.88C72.2039 12.3093 72.1665 12.6827 72.0919 13H69.8519C69.7772 12.6827 69.7399 12.3093 69.7399 11.88C69.7399 11.432 69.7772 11.0587 69.8519 10.76H70.9719C70.8972 10.4427 70.8599 10.0693 70.8599 9.64C70.8599 9.192 70.8972 8.81867 70.9719 8.52H72.0919C72.0172 8.20267 71.9799 7.82933 71.9799 7.4C71.9799 6.952 72.0172 6.57867 72.0919 6.28H70.9719C70.8972 5.96267 70.8599 5.58933 70.8599 5.16C70.8599 4.712 70.8972 4.33867 70.9719 4.04H69.8519C69.7772 3.72267 69.7399 3.34933 69.7399 2.92C69.7399 2.472 69.7772 2.09867 69.8519 1.8H72.0919C72.1665 2.09867 72.2039 2.472 72.2039 2.92C72.2039 3.34933 72.1665 3.72267 72.0919 4.04H73.2119C73.2865 4.33867 73.3239 4.712 73.3239 5.16C73.3239 5.58933 73.2865 5.96267 73.2119 6.28H74.6119C74.5372 5.96267 74.4999 5.58933 74.4999 5.16C74.4999 4.712 74.5372 4.33867 74.6119 4.04H75.4519C75.3772 3.72267 75.3399 3.34933 75.3399 2.92C75.3399 2.472 75.3772 2.09867 75.4519 1.8H77.6919C77.7665 2.09867 77.8039 2.472 77.8039 2.92C77.8039 3.34933 77.7665 3.72267 77.6919 4.04H76.8519C76.9265 4.33867 76.9639 4.712 76.9639 5.16C76.9639 5.58933 76.9265 5.96267 76.8519 6.28H75.4519C75.5265 6.57867 75.5639 6.952 75.5639 7.4C75.5639 7.82933 75.5265 8.20267 75.4519 8.52H76.8519C76.9265 8.81867 76.9639 9.192 76.9639 9.64C76.9639 10.0693 76.9265 10.4427 76.8519 10.76H77.6919Z" fill="#9E9E9E"/>
</svg>
